<svg xmlns="http://www.w3.org/2000/svg" width="32" height="32" viewBox="0 0 32 32" fill="none">
  <defs>
    <linearGradient id="fishGradient" x1="0%" y1="0%" x2="100%" y2="100%">
      <stop offset="0%" style="stop-color:#0891b2;stop-opacity:1" />
      <stop offset="50%" style="stop-color:#0ea5e9;stop-opacity:1" />
      <stop offset="100%" style="stop-color:#0e7490;stop-opacity:1" />
    </linearGradient>
    <linearGradient id="tailGradient" x1="0%" y1="0%" x2="100%" y2="100%">
      <stop offset="0%" style="stop-color:#06b6d4;stop-opacity:1" />
      <stop offset="100%" style="stop-color:#0891b2;stop-opacity:1" />
    </linearGradient>
  </defs>
  <!-- Fish body -->
  <ellipse cx="18" cy="16" rx="10" ry="6" fill="url(#fishGradient)" stroke="#0e7490" stroke-width="0.5"/>
  <!-- Fish tail -->
  <path d="M8 16 L2 12 L4 16 L2 20 Z" fill="url(#tailGradient)" stroke="#0e7490" stroke-width="0.5"/>
  <!-- Fish eye -->
  <circle cx="22" cy="14" r="2" fill="#fff" stroke="#0e7490" stroke-width="0.5"/>
  <circle cx="23" cy="13.5" r="1" fill="#0e7490"/>
  <!-- Fish fins -->
  <path d="M16 10 L14 6 L18 8 Z" fill="url(#tailGradient)" stroke="#0e7490" stroke-width="0.3"/>
  <path d="M16 22 L14 26 L18 24 Z" fill="url(#tailGradient)" stroke="#0e7490" stroke-width="0.3"/>
  <!-- Fish scales pattern -->
  <path d="M12 14 Q14 12 16 14 Q14 16 12 14 Z" fill="none" stroke="#0e7490" stroke-width="0.3" opacity="0.6"/>
  <path d="M15 16 Q17 14 19 16 Q17 18 15 16 Z" fill="none" stroke="#0e7490" stroke-width="0.3" opacity="0.6"/>
  <path d="M18 14 Q20 12 22 14 Q20 16 18 14 Z" fill="none" stroke="#0e7490" stroke-width="0.3" opacity="0.6"/>
</svg>